# xmcd
#
# Track frame offsets:
#	150
#	11058
#	26288
#	39324
#	55834
#	70627
#	80820
#	94217
#	106105
#	115458
#	133945
#	149753
#	164429
#	176907
#	201792
#
# Disc length: 2833 seconds
#
# Revision: 1
# Processed by: cddbd v1.5.2PL0 Copyright (c) Steve Scherf et al.
# Submitted via: audiograbber 1.83.01
#
DISCID=d60b0f0f
DTITLE=Anita Smith - Sweet Dreams
DYEAR=2007
DGENRE=Country
TTITLE0=I've loved and lost again
TTITLE1=I'm not Lisa
TTITLE2=I'll need someone to hold me
TTITLE3=Faded love
TTITLE4=Every little thing
TTITLE5=Three cigarettes in an ashtray
TTITLE6=The hurting's all over
TTITLE7=Sweet Dreams
TTITLE8=Back in baby's arms
TTITLE9=I guess you had to be there
TTITLE10=Tonight the heartache's on me
TTITLE11=Mana he's crazy
TTITLE12=Don Hecht, Alan Black
TTITLE13=Working man
TTITLE14=Leaving on your mind
EXTD=New Zealand - Taranaki Artist\nCrossroads FM 88.4 107.1 
EXTT0=Eddie Miller
EXTT1=Jessie Colter
EXTT2=Bob Mcdill, Wayland Hollyfield
EXTT3=John and Bob Wills
EXTT4=Carlene Carter, Al Anderson
EXTT5=Eddie Miller, W.S.Stevenson
EXTT6=Harlon Howard
EXTT7=Don Gibson
EXTT8=Bob Montgommery
EXTT9=Jon Robbins, Barbara Cloyd
EXTT10=Francis, MacRae, Morrison
EXTT11=Kenny O'Dell
EXTT12=
EXTT13=Rita MacNeil
EXTT14=Wayne P. Walker, Webb Pierce
PLAYORDER=
